<?xml version="1.0" encoding="UTF-8" standalone="no"?>
<!DOCTYPE svg PUBLIC "-//W3C//DTD SVG 1.1//EN"
 "http://www.w3.org/Graphics/SVG/1.1/DTD/svg11.dtd">
<!-- Generated by graphviz version 2.43.0 (0)
 -->
<!-- Title: G Pages: 1 -->
<svg width="590pt" height="476pt"
 viewBox="0.00 0.00 589.90 476.00" xmlns="http://www.w3.org/2000/svg" xmlns:xlink="http://www.w3.org/1999/xlink">
<g id="graph0" class="graph" transform="scale(1 1) rotate(0) translate(4 472)">
<title>G</title>
<polygon fill="white" stroke="transparent" points="-4,4 -4,-472 585.9,-472 585.9,4 -4,4"/>
<!-- 0 -->
<g id="node1" class="node">
<title>0</title>
<ellipse fill="none" stroke="black" cx="361.9" cy="-450" rx="33.29" ry="18"/>
<text text-anchor="middle" x="361.9" y="-446.3" font-family="Times,serif" font-size="14.00">start</text>
</g>
<!-- 1 -->
<g id="node2" class="node">
<title>1</title>
<ellipse fill="none" stroke="black" cx="323.9" cy="-378" rx="27" ry="18"/>
<text text-anchor="middle" x="323.9" y="-374.3" font-family="Times,serif" font-size="14.00">t</text>
</g>
<!-- 0&#45;&gt;1 -->
<g id="edge1" class="edge">
<title>0&#45;&gt;1</title>
<path fill="none" stroke="black" d="M352.89,-432.41C348.35,-424.04 342.74,-413.71 337.67,-404.37"/>
<polygon fill="black" stroke="black" points="340.68,-402.59 332.84,-395.47 334.53,-405.93 340.68,-402.59"/>
</g>
<!-- 15 -->
<g id="node16" class="node">
<title>15</title>
<ellipse fill="none" stroke="black" cx="443.9" cy="-378" rx="27" ry="18"/>
<text text-anchor="middle" x="443.9" y="-374.3" font-family="Times,serif" font-size="14.00">ee</text>
</g>
<!-- 0&#45;&gt;15 -->
<g id="edge15" class="edge">
<title>0&#45;&gt;15</title>
<path fill="none" stroke="black" d="M378.89,-434.5C390.77,-424.35 406.82,-410.65 419.99,-399.4"/>
<polygon fill="black" stroke="black" points="422.43,-401.93 427.76,-392.77 417.89,-396.6 422.43,-401.93"/>
</g>
<!-- 2 -->
<g id="node3" class="node">
<title>2</title>
<ellipse fill="none" stroke="black" cx="242.9" cy="-306" rx="27" ry="18"/>
<text text-anchor="middle" x="242.9" y="-302.3" font-family="Times,serif" font-size="14.00">r</text>
</g>
<!-- 1&#45;&gt;2 -->
<g id="edge2" class="edge">
<title>1&#45;&gt;2</title>
<path fill="none" stroke="black" d="M307.89,-363.17C296.13,-353.01 279.96,-339.03 266.69,-327.56"/>
<polygon fill="black" stroke="black" points="268.72,-324.69 258.86,-320.8 264.14,-329.99 268.72,-324.69"/>
</g>
<!-- 14 -->
<g id="node15" class="node">
<title>14</title>
<ellipse fill="none" stroke="black" cx="323.9" cy="-306" rx="27" ry="18"/>
<text text-anchor="middle" x="323.9" y="-302.3" font-family="Times,serif" font-size="14.00">eps</text>
</g>
<!-- 1&#45;&gt;14 -->
<g id="edge14" class="edge">
<title>1&#45;&gt;14</title>
<path fill="none" stroke="black" d="M323.9,-359.7C323.9,-351.98 323.9,-342.71 323.9,-334.11"/>
<polygon fill="black" stroke="black" points="327.4,-334.1 323.9,-324.1 320.4,-334.1 327.4,-334.1"/>
</g>
<!-- 3 -->
<g id="node4" class="node">
<title>3</title>
<ellipse fill="none" stroke="black" cx="113.9" cy="-234" rx="27" ry="18"/>
<text text-anchor="middle" x="113.9" y="-230.3" font-family="Times,serif" font-size="14.00">f</text>
</g>
<!-- 2&#45;&gt;3 -->
<g id="edge3" class="edge">
<title>2&#45;&gt;3</title>
<path fill="none" stroke="black" d="M222.45,-293.91C201.13,-282.34 167.5,-264.09 143.32,-250.97"/>
<polygon fill="black" stroke="black" points="144.7,-247.73 134.24,-246.04 141.36,-253.89 144.7,-247.73"/>
</g>
<!-- 5 -->
<g id="node6" class="node">
<title>5</title>
<ellipse fill="none" stroke="black" cx="242.9" cy="-234" rx="27" ry="18"/>
<text text-anchor="middle" x="242.9" y="-230.3" font-family="Times,serif" font-size="14.00">rr</text>
</g>
<!-- 2&#45;&gt;5 -->
<g id="edge5" class="edge">
<title>2&#45;&gt;5</title>
<path fill="none" stroke="black" d="M242.9,-287.7C242.9,-279.98 242.9,-270.71 242.9,-262.11"/>
<polygon fill="black" stroke="black" points="246.4,-262.1 242.9,-252.1 239.4,-262.1 246.4,-262.1"/>
</g>
<!-- 4 -->
<g id="node5" class="node">
<title>4</title>
<ellipse fill="none" stroke="black" cx="55.9" cy="-162" rx="55.79" ry="18"/>
<text text-anchor="middle" x="55.9" y="-158.3" font-family="Times,serif" font-size="14.00">NUMBER</text>
</g>
<!-- 3&#45;&gt;4 -->
<g id="edge4" class="edge">
<title>3&#45;&gt;4</title>
<path fill="none" stroke="black" d="M101.31,-217.81C93.95,-208.93 84.48,-197.5 76.1,-187.39"/>
<polygon fill="black" stroke="black" points="78.75,-185.1 69.67,-179.63 73.36,-189.56 78.75,-185.1"/>
</g>
<!-- 6 -->
<g id="node7" class="node">
<title>6</title>
<ellipse fill="none" stroke="black" cx="163.9" cy="-162" rx="33.6" ry="18"/>
<text text-anchor="middle" x="163.9" y="-158.3" font-family="Times,serif" font-size="14.00">POW</text>
</g>
<!-- 5&#45;&gt;6 -->
<g id="edge6" class="edge">
<title>5&#45;&gt;6</title>
<path fill="none" stroke="black" d="M227.29,-219.17C216.12,-209.27 200.86,-195.75 188.11,-184.46"/>
<polygon fill="black" stroke="black" points="190.37,-181.78 180.56,-177.77 185.72,-187.02 190.37,-181.78"/>
</g>
<!-- 7 -->
<g id="node8" class="node">
<title>7</title>
<ellipse fill="none" stroke="black" cx="242.9" cy="-162" rx="27" ry="18"/>
<text text-anchor="middle" x="242.9" y="-158.3" font-family="Times,serif" font-size="14.00">f</text>
</g>
<!-- 5&#45;&gt;7 -->
<g id="edge7" class="edge">
<title>5&#45;&gt;7</title>
<path fill="none" stroke="black" d="M242.9,-215.7C242.9,-207.98 242.9,-198.71 242.9,-190.11"/>
<polygon fill="black" stroke="black" points="246.4,-190.1 242.9,-180.1 239.4,-190.1 246.4,-190.1"/>
</g>
<!-- 9 -->
<g id="node10" class="node">
<title>9</title>
<ellipse fill="none" stroke="black" cx="314.9" cy="-162" rx="27" ry="18"/>
<text text-anchor="middle" x="314.9" y="-158.3" font-family="Times,serif" font-size="14.00">rr</text>
</g>
<!-- 5&#45;&gt;9 -->
<g id="edge9" class="edge">
<title>5&#45;&gt;9</title>
<path fill="none" stroke="black" d="M257.47,-218.83C267.64,-208.94 281.42,-195.55 292.93,-184.36"/>
<polygon fill="black" stroke="black" points="295.37,-186.87 300.1,-177.38 290.49,-181.85 295.37,-186.87"/>
</g>
<!-- 8 -->
<g id="node9" class="node">
<title>8</title>
<ellipse fill="none" stroke="black" cx="127.9" cy="-90" rx="55.79" ry="18"/>
<text text-anchor="middle" x="127.9" y="-86.3" font-family="Times,serif" font-size="14.00">NUMBER</text>
</g>
<!-- 7&#45;&gt;8 -->
<g id="edge8" class="edge">
<title>7&#45;&gt;8</title>
<path fill="none" stroke="black" d="M223.65,-149.28C206.71,-138.98 181.68,-123.74 161.46,-111.43"/>
<polygon fill="black" stroke="black" points="163.2,-108.39 152.84,-106.18 159.56,-114.37 163.2,-108.39"/>
</g>
<!-- 10 -->
<g id="node11" class="node">
<title>10</title>
<ellipse fill="none" stroke="black" cx="235.9" cy="-90" rx="33.6" ry="18"/>
<text text-anchor="middle" x="235.9" y="-86.3" font-family="Times,serif" font-size="14.00">POW</text>
</g>
<!-- 9&#45;&gt;10 -->
<g id="edge10" class="edge">
<title>9&#45;&gt;10</title>
<path fill="none" stroke="black" d="M299.29,-147.17C288.12,-137.27 272.86,-123.75 260.11,-112.46"/>
<polygon fill="black" stroke="black" points="262.37,-109.78 252.56,-105.77 257.72,-115.02 262.37,-109.78"/>
</g>
<!-- 11 -->
<g id="node12" class="node">
<title>11</title>
<ellipse fill="none" stroke="black" cx="314.9" cy="-90" rx="27" ry="18"/>
<text text-anchor="middle" x="314.9" y="-86.3" font-family="Times,serif" font-size="14.00">f</text>
</g>
<!-- 9&#45;&gt;11 -->
<g id="edge11" class="edge">
<title>9&#45;&gt;11</title>
<path fill="none" stroke="black" d="M314.9,-143.7C314.9,-135.98 314.9,-126.71 314.9,-118.11"/>
<polygon fill="black" stroke="black" points="318.4,-118.1 314.9,-108.1 311.4,-118.1 318.4,-118.1"/>
</g>
<!-- 13 -->
<g id="node14" class="node">
<title>13</title>
<ellipse fill="none" stroke="black" cx="386.9" cy="-90" rx="27" ry="18"/>
<text text-anchor="middle" x="386.9" y="-86.3" font-family="Times,serif" font-size="14.00">eps</text>
</g>
<!-- 9&#45;&gt;13 -->
<g id="edge13" class="edge">
<title>9&#45;&gt;13</title>
<path fill="none" stroke="black" d="M329.47,-146.83C339.64,-136.94 353.42,-123.55 364.93,-112.36"/>
<polygon fill="black" stroke="black" points="367.37,-114.87 372.1,-105.38 362.49,-109.85 367.37,-114.87"/>
</g>
<!-- 12 -->
<g id="node13" class="node">
<title>12</title>
<ellipse fill="none" stroke="black" cx="314.9" cy="-18" rx="55.79" ry="18"/>
<text text-anchor="middle" x="314.9" y="-14.3" font-family="Times,serif" font-size="14.00">NUMBER</text>
</g>
<!-- 11&#45;&gt;12 -->
<g id="edge12" class="edge">
<title>11&#45;&gt;12</title>
<path fill="none" stroke="black" d="M314.9,-71.7C314.9,-63.98 314.9,-54.71 314.9,-46.11"/>
<polygon fill="black" stroke="black" points="318.4,-46.1 314.9,-36.1 311.4,-46.1 318.4,-46.1"/>
</g>
<!-- 16 -->
<g id="node17" class="node">
<title>16</title>
<ellipse fill="none" stroke="black" cx="405.9" cy="-306" rx="31.7" ry="18"/>
<text text-anchor="middle" x="405.9" y="-302.3" font-family="Times,serif" font-size="14.00">SUB</text>
</g>
<!-- 15&#45;&gt;16 -->
<g id="edge16" class="edge">
<title>15&#45;&gt;16</title>
<path fill="none" stroke="black" d="M435.08,-360.76C430.54,-352.4 424.9,-342.02 419.8,-332.61"/>
<polygon fill="black" stroke="black" points="422.77,-330.75 414.92,-323.63 416.62,-334.09 422.77,-330.75"/>
</g>
<!-- 17 -->
<g id="node18" class="node">
<title>17</title>
<ellipse fill="none" stroke="black" cx="482.9" cy="-306" rx="27" ry="18"/>
<text text-anchor="middle" x="482.9" y="-302.3" font-family="Times,serif" font-size="14.00">t</text>
</g>
<!-- 15&#45;&gt;17 -->
<g id="edge17" class="edge">
<title>15&#45;&gt;17</title>
<path fill="none" stroke="black" d="M452.94,-360.76C457.72,-352.19 463.68,-341.49 469.02,-331.9"/>
<polygon fill="black" stroke="black" points="472.09,-333.59 473.9,-323.15 465.97,-330.18 472.09,-333.59"/>
</g>
<!-- 23 -->
<g id="node24" class="node">
<title>23</title>
<ellipse fill="none" stroke="black" cx="554.9" cy="-306" rx="27" ry="18"/>
<text text-anchor="middle" x="554.9" y="-302.3" font-family="Times,serif" font-size="14.00">eps</text>
</g>
<!-- 15&#45;&gt;23 -->
<g id="edge23" class="edge">
<title>15&#45;&gt;23</title>
<path fill="none" stroke="black" d="M462.98,-364.97C480.61,-353.85 507.02,-337.19 527.01,-324.58"/>
<polygon fill="black" stroke="black" points="529.1,-327.41 535.69,-319.11 525.37,-321.48 529.1,-327.41"/>
</g>
<!-- 18 -->
<g id="node19" class="node">
<title>18</title>
<ellipse fill="none" stroke="black" cx="482.9" cy="-234" rx="27" ry="18"/>
<text text-anchor="middle" x="482.9" y="-230.3" font-family="Times,serif" font-size="14.00">r</text>
</g>
<!-- 17&#45;&gt;18 -->
<g id="edge18" class="edge">
<title>17&#45;&gt;18</title>
<path fill="none" stroke="black" d="M482.9,-287.7C482.9,-279.98 482.9,-270.71 482.9,-262.11"/>
<polygon fill="black" stroke="black" points="486.4,-262.1 482.9,-252.1 479.4,-262.1 486.4,-262.1"/>
</g>
<!-- 22 -->
<g id="node23" class="node">
<title>22</title>
<ellipse fill="none" stroke="black" cx="554.9" cy="-234" rx="27" ry="18"/>
<text text-anchor="middle" x="554.9" y="-230.3" font-family="Times,serif" font-size="14.00">eps</text>
</g>
<!-- 17&#45;&gt;22 -->
<g id="edge22" class="edge">
<title>17&#45;&gt;22</title>
<path fill="none" stroke="black" d="M497.47,-290.83C507.64,-280.94 521.42,-267.55 532.93,-256.36"/>
<polygon fill="black" stroke="black" points="535.37,-258.87 540.1,-249.38 530.49,-253.85 535.37,-258.87"/>
</g>
<!-- 19 -->
<g id="node20" class="node">
<title>19</title>
<ellipse fill="none" stroke="black" cx="482.9" cy="-162" rx="27" ry="18"/>
<text text-anchor="middle" x="482.9" y="-158.3" font-family="Times,serif" font-size="14.00">f</text>
</g>
<!-- 18&#45;&gt;19 -->
<g id="edge19" class="edge">
<title>18&#45;&gt;19</title>
<path fill="none" stroke="black" d="M482.9,-215.7C482.9,-207.98 482.9,-198.71 482.9,-190.11"/>
<polygon fill="black" stroke="black" points="486.4,-190.1 482.9,-180.1 479.4,-190.1 486.4,-190.1"/>
</g>
<!-- 21 -->
<g id="node22" class="node">
<title>21</title>
<ellipse fill="none" stroke="black" cx="554.9" cy="-162" rx="27" ry="18"/>
<text text-anchor="middle" x="554.9" y="-158.3" font-family="Times,serif" font-size="14.00">eps</text>
</g>
<!-- 18&#45;&gt;21 -->
<g id="edge21" class="edge">
<title>18&#45;&gt;21</title>
<path fill="none" stroke="black" d="M497.47,-218.83C507.64,-208.94 521.42,-195.55 532.93,-184.36"/>
<polygon fill="black" stroke="black" points="535.37,-186.87 540.1,-177.38 530.49,-181.85 535.37,-186.87"/>
</g>
<!-- 20 -->
<g id="node21" class="node">
<title>20</title>
<ellipse fill="none" stroke="black" cx="487.9" cy="-90" rx="55.79" ry="18"/>
<text text-anchor="middle" x="487.9" y="-86.3" font-family="Times,serif" font-size="14.00">NUMBER</text>
</g>
<!-- 19&#45;&gt;20 -->
<g id="edge20" class="edge">
<title>19&#45;&gt;20</title>
<path fill="none" stroke="black" d="M484.13,-143.7C484.68,-135.98 485.34,-126.71 485.96,-118.11"/>
<polygon fill="black" stroke="black" points="489.45,-118.33 486.67,-108.1 482.47,-117.83 489.45,-118.33"/>
</g>
</g>
</svg>
